<!-- https://icon-icons.com/ko/%EC%95%84%EC%9D%B4%EC%BD%98/%ED%8C%8C%EC%9D%BC%EC%9D%98-%EC%9C%A0%ED%98%95-nginx/130305 -->
<svg xmlns="http://www.w3.org/2000/svg" viewBox="0 0 32 32">
  <defs>
    <style>
      @keyframes nginx-ani {
        10%, 16% {
          transform: rotate(60deg) scale(0.9);
        }
        26%, 32% {
          transform: rotate(120deg);
        }
        42%, 48% {
          transform: rotate(180deg) scale(0.9);
        }
        58%, 64% {
          transform: rotate(240deg);
        }
        74%, 80% {
          transform: rotate(300deg) scale(0.9);
        }
        90%, 100% {
          transform: rotate(360deg);
        }
      }
      #nginx-icon {
        animation: nginx-ani 5s linear infinite;
        transform-origin: 50% 50%;
      }
    </style>
  </defs>
  <g>
    <path id="nginx-icon" style="fill:#019639" d="M15.948,2h.065a10.418,10.418,0,0,1,.972.528Q22.414,5.65,27.843,8.774a.792.792,0,0,1,.414.788c-.008,4.389,0,8.777-.005,13.164a.813.813,0,0,1-.356.507q-5.773,3.324-11.547,6.644a.587.587,0,0,1-.657.037Q9.912,26.6,4.143,23.274a.7.7,0,0,1-.4-.666q0-6.582,0-13.163a.693.693,0,0,1,.387-.67Q9.552,5.657,14.974,2.535c.322-.184.638-.379.974-.535"/>
    <path style="fill: #ffffff" d="M8.767,10.538q0,5.429,0,10.859a1.509,1.509,0,0,0,.427,1.087,1.647,1.647,0,0,0,2.06.206,1.564,1.564,0,0,0,.685-1.293c0-2.62-.005-5.24,0-7.86q3.583,4.29,7.181,8.568a2.833,2.833,0,0,0,2.6.782,1.561,1.561,0,0,0,1.251-1.371q.008-5.541,0-11.081a1.582,1.582,0,0,0-3.152,0c0,2.662-.016,5.321,0,7.982-2.346-2.766-4.663-5.556-7-8.332A2.817,2.817,0,0,0,10.17,9.033,1.579,1.579,0,0,0,8.767,10.538Z" />
  </g>
</svg>