<svg xmlns="http://www.w3.org/2000/svg" viewBox="0 0 774 875.7">
  <defs>
    <style>
    @keyframes webpack-inner-ani {
        33% {
          transform: scale(0.5);
        }
        66% {
          transform: rotate(180deg) scale(0.5);
        }
        100% {
          transform: rotate(360deg);
        }
      }
      @keyframes webpack-outer-ani {
        33% {
          transform: scale(1.05);
        }
        66% {
          transform: rotate(-180deg) scale(1.05);
        }
        100% {
          transform: rotate(-360deg);
        }
      }
      #webpack-inner-box {
        animation: webpack-inner-ani 5s infinite;
        transform-origin: 50% 50%;
      }
      #webpack-outer-box {
        animation: webpack-outer-ani 5s infinite;
        transform-origin: 50% 50%;
      }
    </style>
  </defs>
  <path id="webpack-outer-box" fill="#8ed6fb" d="M704.9 641.7L399.8 814.3V679.9l190.1-104.6 115 66.4zm20.9-18.9V261.9l-111.6 64.5v232l111.6 64.4zM67.9 641.7L373 814.3V679.9L182.8 575.3 67.9 641.7zM47 622.8V261.9l111.6 64.5v232L47 622.8zm13.1-384.3L373 61.5v129.9L172.5 301.7l-1.6.9-110.8-64.1zm652.6 0l-312.9-177v129.9l200.5 110.2 1.6.9 110.8-64z"/>
  <path id="webpack-inner-box" fill="#1c78c0" d="M373 649.3L185.4 546.1V341.8L373 450.1v199.2zm26.8 0l187.6-103.1V341.8L399.8 450.1v199.2zm-13.4-207zM198.1 318.2l188.3-103.5 188.3 103.5-188.3 108.7-188.3-108.7z"/>
</svg>