<!-- https://uxwing.com/rest-api-icon/ -->
<!-- https://freesvg.org/brackets -->
<svg version="1.1" id="Layer_1" xmlns="http://www.w3.org/2000/svg" xmlns:xlink="http://www.w3.org/1999/xlink" viewBox="0 0 120 120" style="enable-background:new 0 0 122.88 100.33" xml:space="preserve">
	<defs>
		<style>
		@keyframes restapi-left-ani {
				15%{transform: translateX(-600px) scale(1);}
				45%, 55%{transform: translateX(240px) scale(1);}
				85%{transform: translateX(-600px) scale(1);}
			}
			@keyframes restapi-right-ani {
				15%{transform: translate(600px, 772px) scale(-1);}
				45%, 55%{transform: translate(-240px, 774px) scale(-1);}
				85%{transform: translate(600px, 772px) scale(-1);}
			}
			@keyframes restapi-box-ani {
				0% {transform: rotateY(0deg);}
				45%, 55% {transform: rotateY(90deg);}
				100% {transform: rotateY(0deg);}
			}
			#restapi-icon {
				transform: scale(1.15) translate(-8px, -8px);
			}
			#restapi-text {
				fill: #43A2D8;
				transform: translate(-7.5px, -5px) scale(1.1);
			}
			#restapi-braces {
				fill: #34AF67;
				transform: translate(35px, 40px) scale(0.05);
			}		
			#restapi-left-brace {
				animation: restapi-left-ani 5s linear infinite;
				transform: translateX(-600px) scale(1);
			}
			#restapi-right-brace {
				animation: restapi-right-ani 5s linear infinite;
				transform: translate(600px, 774px) scale(-1);
			}
			#restapi-box {
				animation: restapi-box-ani 5s linear infinite;
				transform-origin: 50% 50%;
			}
		</style>
		<mask id="restapi-mask">
			<rect id="restapi-box" fill="white" x="23" y="50" width="80" height="20" />
		</mask>
	</defs>
	<g id="restapi-icon">
		<g id="restapi-text" mask="url(#restapi-mask)">
			<path class="st0" d="M29.67,67.12v-16.5h8.5c1.58,0,2.78,0.13,3.61,0.41 c0.83,0.27,1.51,0.77,2.01,1.5c0.51,0.74,0.77,1.63,0.77,2.68c0,0.91-0.2,1.71-0.59,2.37c-0.39,0.67-0.93,1.21-1.61,1.62 c-0.43,0.26-1.03,0.48-1.79,0.65c0.61,0.21,1.05,0.4,1.32,0.61c0.19,0.14,0.46,0.43,0.81,0.87c0.35,0.44,0.59,0.79,0.71,1.03 l2.48,4.77h-5.76l-2.72-5.03c-0.35-0.65-0.65-1.08-0.92-1.27c-0.37-0.25-0.79-0.38-1.25-0.38h-0.45v6.68H29.67L29.67,67.12z" />
			<path class="st0" d="M46.87,50.62h13.65v3.52h-8.53v2.63h7.91v3.36h-7.91v3.25h8.78v3.73h-13.9V50.62L46.87,50.62z" />
			<path class="st0" d="M61.98,61.66 l4.84-0.3c0.1,0.79,0.32,1.38,0.64,1.79c0.53,0.66,1.28,1,2.25,1c0.72,0,1.29-0.17,1.68-0.51c0.39-0.34,0.59-0.74,0.59-1.19 c0-0.43-0.19-0.81-0.56-1.15c-0.37-0.34-1.24-0.65-2.61-0.96c-2.23-0.5-3.82-1.17-4.78-2c-0.96-0.83-1.44-1.89-1.44-3.18 c0-0.85,0.25-1.65,0.74-2.4c0.49-0.75,1.23-1.35,2.22-1.78c0.99-0.43,2.34-0.64,4.06-0.64c2.11,0,3.71,0.39,4.82,1.18 c1.1,0.79,1.76,2.03,1.97,3.75l-4.79,0.29c-0.13-0.75-0.4-1.3-0.8-1.63c-0.41-0.34-0.98-0.51-1.69-0.51 c-0.59,0-1.04,0.13-1.34,0.38c-0.3,0.25-0.45,0.56-0.45,0.92c0,0.26,0.13,0.49,0.37,0.71c0.24,0.21,0.8,0.42,1.7,0.61 c2.23,0.48,3.83,0.97,4.79,1.46c0.96,0.49,1.67,1.1,2.1,1.83c0.44,0.72,0.66,1.54,0.66,2.44c0,1.06-0.29,2.03-0.88,2.92 c-0.58,0.89-1.4,1.57-2.45,2.03c-1.05,0.46-2.37,0.69-3.97,0.69c-2.8,0-4.75-0.54-5.83-1.62C62.74,64.69,62.13,63.32,61.98,61.66 L61.98,61.66z" />
			<path class="st0" d="M77.69,50.62h15.51v4.08H88v12.42H82.9V54.7h-5.21V50.62L77.69,50.62z" />
		</g>
		<g id="restapi-braces">
			<path
					id="restapi-left-brace"
					d="m382.97 683.93v53.27h-22.94c-61.41 0-102.59-9.13-123.55-27.38-20.72-18.25-31.08-54.62-31.08-109.13v-88.41c0-37.24-6.66-63.01-19.97-77.31-13.32-14.31-37.49-21.46-72.51-21.46h-22.565v-52.9h22.565c35.27 0 59.44-7.03 72.51-21.09 13.31-14.3 19.97-39.82 19.97-76.57v-88.78c0-54.51 10.36-90.759 31.08-108.76 20.96-18.252 62.14-27.377 123.55-27.378h22.94v52.9h-25.16c-34.77 0.001-57.46 5.426-68.06 16.278-10.61 10.85-15.91 33.66-15.91 68.44v91.74c0 38.72-5.67 66.83-17.02 84.34-11.1 17.51-30.21 29.35-57.34 35.51 27.38 6.66 46.61 18.75 57.71 36.26s16.65 45.5 16.65 83.97v91.74c0 34.78 5.3 57.59 15.91 68.44 10.6 10.85 33.29 16.28 68.06 16.28h25.16"
			/>
			<path
					id="restapi-right-brace"
					d="m-631.02 683.28v53.27h-22.93c-61.41 0-102.6-9.12-123.56-27.37-20.72-18.25-31.08-54.63-31.07-109.13v-88.41c-0.01-37.24-6.66-63.01-19.98-77.32-13.32-14.3-37.49-21.45-72.51-21.45h-22.56v-52.9h22.56c35.27 0 59.44-7.03 72.51-21.09 13.32-14.3 19.97-39.83 19.98-76.57v-88.79c-0.01-54.5 10.35-90.753 31.07-108.76 20.96-18.245 62.15-27.37 123.56-27.371h22.93v52.9h-25.15c-34.78 0-57.47 5.426-68.07 16.281-10.61 10.85-15.91 33.66-15.91 68.43v91.74c0 38.72-5.67 66.84-17.01 84.35-11.1 17.51-30.22 29.35-57.34 35.51 27.37 6.66 46.61 18.74 57.7 36.25 11.1 17.51 16.65 45.51 16.65 83.98v91.74c0 34.77 5.3 57.59 15.91 68.44 10.6 10.85 33.29 16.27 68.07 16.27h25.15"
			/>
		</g>
	</g>
</svg>
