<svg xmlns="http://www.w3.org/2000/svg" x="0px" y="0px" viewBox="0 0 58 58">
	<defs>
		<style>
			@keyframes swift-ani {
				0% {
					transform: translate(0px, 0px);
				}
				25% {
						transform: translate(5px, 0px) 
				}
				50% {
						transform: translate(0px, 5px);
				}
				65% {
						transform: translate(0px, 5px) rotate3d(1, 1, 0, 180deg);
				}
				80% {
					transform: translate(-5px, 0px);	
				}
			}
			@keyframes line-ani {
				0% {
					stroke-dashoffset: 23;
				}
				10%, 30% {
					stroke-dashoffset: 0;
				}
				50%, 100% {
					stroke-dashoffset: -23;
				}
			}
			@keyframes text-ani {
				30% {
					transform: translate(30px, 30px);
				}
				70%, 100% {
					transform: translate(-40px, -40px);
				}
			}
			.bird {
				transform: translate(20px, 20px) scale(0.5);
				fill: #F6291E;
			}
			.line {
				stroke: #F6291E;
				stroke-dasharray: 23;
				stroke-dashoffset: 23;
				animation: line-ani 5s linear infinite;
			}
			.swift{
				animation: swift-ani 5s linear infinite;
			}
			.text {
				transform-origin: 35px 25px;
				transform: rotate(-45deg);
				font-weight: bold;
			}
			.text-box {
				transform: translate(30px, 30px);
				animation: text-ani 5s linear infinite;
			}
		</style>
	</defs>
	<g class="text-box">
		<text class="text" x="12" y="35" fill="#F6291E">swift</text>
	</g>
	<g class="swift">
		<!-- <line class="line" x1="38.8" y1="22.5" x2="23" y2="9" stroke="black"></line>
		<line class="line" x1="22" y1="40" x2="5" y2="25" stroke="black"></line> -->
		<path class="bird" d="M53.785,39.858c3.855-11.965-3.012-27.425-16.534-37.016c-0.392-0.277-0.927-0.239-1.272,0.097
			c-0.347,0.334-0.405,0.867-0.142,1.269c5.845,8.888,7.347,17.892,4.205,24.91C30.677,22.793,13.741,8.029,13.564,7.875
			c-0.375-0.329-0.938-0.329-1.314,0c-0.377,0.329-0.453,0.885-0.179,1.303c0.264,0.4,4.996,7.58,10.092,13.822
			c-3.674-2.624-7.728-5.946-14.94-11.976c-0.375-0.314-0.923-0.31-1.294,0.009c-0.371,0.319-0.456,0.86-0.201,1.278
			c7.144,11.727,19.036,22.601,24.897,27.586C17.115,45.95,1.709,35.99,1.55,35.886c-0.398-0.261-0.922-0.207-1.257,0.128
			s-0.389,0.86-0.129,1.257c2.946,4.48,6.996,7.811,12.17,11.433c6.887,4.822,13.74,6.639,19.576,6.639
			c6.032,0,10.977-1.941,13.743-4.513c0.012-0.015,1.251-1.294,3.996-0.49c2.188,0.64,5.203,3.049,6.258,4.137
			c0.254,0.262,0.634,0.365,0.985,0.268c0.353-0.099,0.624-0.382,0.707-0.738c0.266-1.147,0.4-2.331,0.4-3.517
			C58,46.495,56.508,42.744,53.785,39.858z M55.935,51.812c-1.523-1.258-3.775-2.822-5.726-3.393
			c-3.989-1.163-5.966,0.985-5.983,1.012c-4.885,4.534-17.654,6.801-30.746-2.366c-3.401-2.381-6.292-4.622-8.666-7.145
			c1.687,0.79,3.789,1.65,6.176,2.369c8.172,2.459,15.751,2.015,21.923-1.288c0.293-0.157,0.489-0.449,0.523-0.78
			c0.033-0.331-0.1-0.657-0.355-0.87c-4.372-3.641-14.182-12.271-21.66-22.234c7.282,6.006,10.669,8.494,16.041,11.717
			c0.435,0.261,0.997,0.155,1.308-0.248c0.31-0.403,0.268-0.973-0.096-1.327c-3.44-3.341-7.503-8.644-10.521-12.828
			c6.188,5.225,15.818,13.146,21.745,16.988c0.235,0.153,0.527,0.198,0.797,0.129c0.271-0.071,0.501-0.254,0.632-0.502
			c3.476-6.605,3.019-14.903-1.154-23.317c10.276,9.224,15.077,22.076,11.526,32.054c-0.131,0.367-0.036,0.776,0.243,1.05
			C54.558,43.397,56,46.825,56,50.488C56,50.931,55.978,51.372,55.935,51.812z"/>
	</g>
	 <!-- <a href="https://www.flaticon.com/authors/swifticons" title="Swifticons">Swifticons</a> from <a href="https://www.flaticon.com/" title="Flaticon"> www.flaticon.com</a> -->
</svg>
